<svg width="205" height="39" viewBox="0 0 205 39" fill="none" xmlns="http://www.w3.org/2000/svg">
<path d="M31.5007 17.1378C30.3476 18.2543 29.7714 19.8073 29.9287 21.3743L29.9017 21.3482C30.0634 23.1922 29.3723 25.0111 28.0126 26.3196C26.653 27.6281 24.7631 28.2933 22.8471 28.1376L22.8742 28.1637C20.5543 27.9559 18.3481 29.1703 17.3581 31.2001C16.3681 33.2299 16.8068 35.6392 18.455 37.224C20.1032 38.8089 22.607 39.2289 24.7152 38.2743C26.8234 37.3196 28.0833 35.1953 27.8653 32.9628L27.8938 32.9889C27.7321 31.1449 28.4232 29.326 29.7828 28.0175C31.1425 26.709 33.0324 26.0438 34.9484 26.1995L34.9198 26.1734C37.4694 26.3941 39.8418 24.8979 40.6494 22.5601C41.4569 20.2222 40.4875 17.6568 38.3081 16.3645C36.1287 15.0721 33.3118 15.3923 31.5052 17.1378H31.5007Z" fill="#5454D4"/>
<path d="M20.4139 24.753L20.3854 24.7269C22.0146 24.8849 23.6314 24.3305 24.7897 23.2166C25.9479 22.1027 26.5253 20.547 26.3623 18.979L26.3909 19.005C26.2292 17.161 26.9203 15.3422 28.2799 14.0336C29.6396 12.7251 31.5294 12.0599 33.4455 12.2156L33.4169 12.1896C35.7369 12.3992 37.9445 11.1861 38.936 9.15662C39.9275 7.1271 39.4901 4.71711 37.8423 3.1313C36.1946 1.54549 33.6905 1.1245 31.5817 2.07876C29.4729 3.03302 28.2124 5.15756 28.4303 7.3904L28.4033 7.36292C28.5655 9.20705 27.8746 11.0262 26.5148 12.3349C25.1551 13.6435 23.2649 14.3085 21.3487 14.1523L21.3758 14.1798C19.7466 14.0218 18.1298 14.5763 16.9715 15.6902C15.8132 16.8041 15.2358 18.3597 15.3988 19.9278L15.3717 19.9018C15.5329 21.7456 14.8416 23.5641 13.4821 24.8726C12.1226 26.181 10.233 26.8463 8.31717 26.6912L8.34422 26.7172C6.02418 26.5075 3.81667 27.7206 2.82514 29.7501C1.83361 31.7796 2.27104 34.1896 3.91878 35.7754C5.56652 37.3612 8.07063 37.7822 10.1794 36.828C12.2882 35.8737 13.5487 33.7492 13.3308 31.5163L13.3594 31.5424C13.1976 29.6984 13.8887 27.8795 15.2484 26.571C16.608 25.2625 18.4979 24.5973 20.4139 24.753Z" fill="#FF7143"/>
<path d="M10.3416 21.8501C11.4949 20.7338 12.0707 19.1805 11.9121 17.6136L11.9406 17.6397C11.7788 15.7951 12.4703 13.9758 13.8306 12.6671C15.191 11.3585 17.0817 10.6937 18.9982 10.8503L18.9696 10.8242C21.2889 11.0333 23.4953 9.82034 24.4863 7.79146C25.4772 5.76259 25.0398 3.35355 23.3926 1.76833C21.7455 0.183107 19.2424 -0.237857 17.1343 0.715822C15.0262 1.6695 13.7658 3.79302 13.9831 6.02508L13.956 5.99905C14.1178 7.84304 13.4266 9.66188 12.067 10.9704C10.7073 12.279 8.81747 12.9441 6.90146 12.7884L6.92851 12.8145C4.37902 12.5944 2.00711 14.091 1.20004 16.4288C0.392962 18.7667 1.36272 21.3318 3.54214 22.6238C5.72155 23.9159 8.53815 23.5955 10.3446 21.8501H10.3416Z" fill="#5454D4"/>
<path d="M56.8965 7.42383H61.3601V28.3286H56.8965V7.42383Z" fill="#19191B"/>
<path fill-rule="evenodd" clip-rule="evenodd" d="M68.734 14.1371C65.7883 15.3213 63.8752 18.098 63.888 21.1703C63.8725 23.1848 64.6994 25.1207 66.1825 26.5424C67.6656 27.9641 69.6805 28.7521 71.7736 28.7291C74.9659 28.7291 77.8433 26.8768 79.062 24.0371C80.2806 21.1975 79.6002 17.9308 77.3383 15.7627C75.0765 13.5946 71.6796 12.9528 68.734 14.1371ZM71.7102 17.9671C73.5884 17.9337 75.1437 19.3631 75.1956 21.1703C75.2464 22.0662 74.9054 22.9417 74.2554 23.5848C73.6054 24.228 72.7055 24.5802 71.7736 24.5563C69.8951 24.5564 68.3673 23.0997 68.3499 21.2919C68.3326 19.4841 69.832 18.0004 71.7102 17.9671Z" fill="#19191B"/>
<path fill-rule="evenodd" clip-rule="evenodd" d="M97.4489 27.6069V14.0107L93.1041 14.0078V15.4687C92.0442 14.2205 90.4322 13.5299 88.7592 13.6072C84.6782 13.731 81.4365 16.9508 81.4365 20.8804C81.4365 24.81 84.6782 28.0297 88.7592 28.1536C90.4322 28.2309 92.0442 27.5402 93.1041 26.2921V27.6011C93.1788 28.4647 92.8417 29.3143 92.1878 29.9101C91.5339 30.5059 90.6341 30.7835 89.7421 30.6646C88.3312 30.8032 86.9792 30.0842 86.3501 28.8609L82.5418 30.9799C84.0317 33.3162 86.7529 34.6558 89.5933 34.4512C93.5504 34.4512 97.4489 32.4176 97.4489 27.6069ZM90.9846 17.5734C92.3273 18.1561 93.167 19.4661 93.1056 20.8825C93.1334 21.797 92.7581 22.6802 92.0724 23.314C91.3867 23.9477 90.4546 24.2729 89.5062 24.2092C88.0332 24.2109 86.7072 23.3505 86.1565 22.0357C85.6058 20.7209 85.941 19.216 87.0034 18.2341C88.0658 17.2522 89.6419 16.9906 90.9846 17.5734Z" fill="#19191B"/>
<path fill-rule="evenodd" clip-rule="evenodd" d="M104.823 14.1371C101.877 15.3213 99.964 18.098 99.9768 21.1703C99.9613 23.1848 100.788 25.1207 102.271 26.5424C103.754 27.9641 105.769 28.7521 107.862 28.7291C111.055 28.7291 113.932 26.8768 115.151 24.0371C116.369 21.1975 115.689 17.9308 113.427 15.7627C111.165 13.5946 107.768 12.9528 104.823 14.1371ZM107.799 17.9671C109.677 17.9337 111.233 19.3631 111.285 21.1703C111.335 22.0662 110.994 22.9417 110.344 23.5848C109.694 24.228 108.794 24.5802 107.862 24.5563C105.984 24.5564 104.456 23.0997 104.439 21.2919C104.421 19.4841 105.921 18.0004 107.799 17.9671Z" fill="#19191B"/>
<path fill-rule="evenodd" clip-rule="evenodd" d="M119.483 7.7921C118.482 8.19105 117.83 9.13089 117.83 10.1734C117.844 11.591 119.035 12.7368 120.508 12.7509C121.591 12.7509 122.567 12.1229 122.982 11.1597C123.397 10.1966 123.167 9.08798 122.401 8.35083C121.636 7.61367 120.484 7.39315 119.483 7.7921ZM122.746 14.0107H118.28L118.274 28.33H122.746V14.0107Z" fill="#19191B"/>
<path fill-rule="evenodd" clip-rule="evenodd" d="M140.096 26.3729C141.431 24.9541 142.123 23.0816 142.019 21.1702C142.124 19.2585 141.432 17.3855 140.097 15.9662C138.762 14.547 136.894 13.6989 134.907 13.6099C133.232 13.522 131.605 14.163 130.475 15.3557V14.0106H126.011V34.0562H130.475V26.9819C131.604 28.1755 133.232 28.8171 134.907 28.7291C136.894 28.6397 138.761 27.7917 140.096 26.3729ZM133.956 17.8484C135.9 17.817 137.506 19.2999 137.555 21.1703C137.622 22.0998 137.274 23.0128 136.598 23.6799C135.922 24.347 134.983 24.7047 134.016 24.6633C132.072 24.6635 130.491 23.1552 130.475 21.2843C130.458 19.4134 132.012 17.8797 133.956 17.8484Z" fill="#19191B"/>
<path d="M155.793 24.0328C155.793 27.3263 152.818 28.7293 149.605 28.7293C146.949 28.9609 144.414 27.6108 143.207 25.3216L147.074 23.2026C147.397 24.2683 148.449 24.9724 149.599 24.892C150.669 24.892 151.206 24.5767 151.206 24.0053C151.206 22.4288 143.885 23.2605 143.885 18.3065C143.885 15.1838 146.623 13.6101 149.718 13.6101C152.087 13.5379 154.31 14.7116 155.519 16.6736L151.711 18.6493C151.369 17.8826 150.585 17.3865 149.718 17.3895C148.944 17.3895 148.467 17.6788 148.467 18.1908C148.473 19.8238 155.793 18.7347 155.793 24.0328Z" fill="#19191B"/>
<path d="M172.097 14.0106V28.33H167.634V26.9834C166.589 28.1887 165.007 28.8386 163.381 28.7306C160.375 28.7306 157.82 26.6695 157.82 22.8004V14.0106H162.284V22.1712C162.208 22.8615 162.452 23.5488 162.95 24.0503C163.449 24.5519 164.152 24.8168 164.871 24.7747C166.508 24.7747 167.638 23.8591 167.638 21.8255V14.015L172.097 14.0106Z" fill="#19191B"/>
<path d="M197.692 19.5373V28.3285H193.228V19.909C193.228 18.4771 192.514 17.5615 191.086 17.5615C189.598 17.5615 188.764 18.5639 188.764 20.2533V28.3285H184.302V19.909C184.302 18.4771 183.588 17.5615 182.159 17.5615C180.671 17.5615 179.839 18.5639 179.839 20.2533V28.3285H175.375V14.0092H179.839V15.3254C180.779 14.1389 182.28 13.4924 183.826 13.6085C185.38 13.5354 186.859 14.2525 187.723 15.4975C188.728 14.196 190.358 13.4826 192.038 13.6085C195.454 13.6099 197.692 15.9575 197.692 19.5373Z" fill="#19191B"/>
<path d="M201.467 13.9225C203.296 13.9225 204.779 12.4952 204.779 10.7346C204.779 8.97401 203.296 7.54675 201.467 7.54675C199.637 7.54675 198.154 8.97401 198.154 10.7346C198.154 12.4952 199.637 13.9225 201.467 13.9225Z" fill="#19191B"/>
</svg>
